<?xml version="1.0" ?><svg viewBox="0 0 63 63" xmlns="http://www.w3.org/2000/svg"><defs><style>.cls-1{fill:#428dff;}</style></defs><title/><g data-name="Layer 35" id="Layer_35"><path class="cls-1" d="M45,46.05a.5.5,0,0,1-.5-.5V23.73l-6.73-7.68H24a2.5,2.5,0,0,0-2.5,2.5v7a.5.5,0,0,1-1,0v-7a3.5,3.5,0,0,1,3.5-3.5H38.18l7.27,8.31V45.55A.5.5,0,0,1,45,46.05ZM43,24a.5.5,0,0,0-.5-.5H39.24a.79.79,0,0,1-.79-.79V18.83a.5.5,0,0,0-1,0v3.86a1.79,1.79,0,0,0,1.79,1.79h3.21A.5.5,0,0,0,43,24ZM22.54,35.64a.28.28,0,0,0,.21.08h2v1a.22.22,0,0,0,.12.19.73.73,0,0,0,.3.07.66.66,0,0,0,.3-.07.21.21,0,0,0,.13-.19v-1H26a.26.26,0,0,0,.2-.11.4.4,0,0,0,.09-.25.45.45,0,0,0-.08-.26A.25.25,0,0,0,26,35h-.39V34a.22.22,0,0,0-.12-.2.75.75,0,0,0-.31-.06c-.28,0-.42.08-.42.26v1H23.54l1.65-3.08a.24.24,0,0,0,0-.12.28.28,0,0,0-.14-.22.54.54,0,0,0-.28-.09.4.4,0,0,0-.37.22L22.5,35.27a.32.32,0,0,0,0,.16A.29.29,0,0,0,22.54,35.64Zm4.65,1a2.38,2.38,0,0,0,2.64,0,1.54,1.54,0,0,0,.49-1.27V33.15a1.53,1.53,0,0,0-.49-1.26,2.33,2.33,0,0,0-2.64,0,1.56,1.56,0,0,0-.48,1.26v2.18A1.57,1.57,0,0,0,27.19,36.6Zm.36-3.45a.85.85,0,0,1,1-1,1,1,0,0,1,.71.24.94.94,0,0,1,.25.72v2.18a1,1,0,0,1-.25.73,1,1,0,0,1-.71.24.85.85,0,0,1-1-1Zm1,1.41a.37.37,0,0,0,.26-.09.3.3,0,0,0,.09-.23.29.29,0,0,0-.09-.22.37.37,0,0,0-.26-.09.39.39,0,0,0-.26.09.27.27,0,0,0-.1.22.28.28,0,0,0,.1.23A.39.39,0,0,0,28.52,34.56Zm2.28,1.08a.29.29,0,0,0,.22.08h2v1a.23.23,0,0,0,.13.19.66.66,0,0,0,.3.07.73.73,0,0,0,.3-.07.22.22,0,0,0,.12-.19v-1h.39a.24.24,0,0,0,.2-.11.4.4,0,0,0,.09-.25.44.44,0,0,0-.07-.26.25.25,0,0,0-.22-.11h-.39V34a.22.22,0,0,0-.12-.2.67.67,0,0,0-.3-.06c-.28,0-.43.08-.43.26v1H31.81l1.65-3.08a.41.41,0,0,0,0-.12.27.27,0,0,0-.15-.22.51.51,0,0,0-.28-.09.4.4,0,0,0-.36.22l-1.94,3.57a.33.33,0,0,0-.05.16A.29.29,0,0,0,30.8,35.64Z"/></g></svg>